<svg xmlns="http://www.w3.org/2000/svg" width="1280" height="1088" fill="none"><g clip-path="url(#a)"><path fill="#fff" d="M0 0h1280v1088H0z"/><circle cx="1221.66" cy="761.631" r="125" fill="#D0D6E3" transform="rotate(-92.144 1221.66 761.631)"/><circle cx="1267.83" cy="524.737" r="100" fill="#D0D6E3" transform="rotate(-92.144 1267.83 524.737)"/><circle cx="1173.19" cy="616.343" r="100" fill="#D0D6E3" transform="rotate(-92.144 1173.19 616.343)"/><circle cx="1309.84" cy="631.24" r="100" fill="#D0D6E3" transform="rotate(-92.144 1309.84 631.24)"/><ellipse cx="1351.03" cy="809.323" fill="#D0D6E3" rx="116.5" ry="108.5" transform="rotate(-92.144 1351.03 809.323)"/><circle cx="1210.38" cy="968.197" r="175" fill="#D0D6E3" transform="rotate(-92.144 1210.38 968.197)"/><circle cx="20" cy="462" r="125" fill="#D0D6E3" transform="rotate(-90 20 462)"/><circle cx="-3" cy="291" r="100" fill="#D0D6E3" transform="rotate(-90 -3 291)"/></g><defs><clipPath id="a"><path fill="#fff" d="M0 0h1280v1088H0z"/></clipPath></defs></svg>