<svg xmlns="http://www.w3.org/2000/svg" width="1280" height="832" fill="none"><g clip-path="url(#a)"><path fill="#fff" d="M0 0h1280v832H0z"/><circle cx="326" cy="306" r="48.5" stroke="#C6E4E7" stroke-width="3"/><circle cx="159" cy="156" r="33.5" stroke="#C6E4E7" stroke-width="3"/><circle cx="919" cy="422" r="50" fill="#C6E4E7" fill-opacity=".5"/><circle cx="1241" cy="372" r="100" fill="#D0D6E3"/><circle cx="1111" cy="447" r="75" fill="#D0D6E3"/><circle cx="996" cy="65" r="115" fill="#FFEBF1"/><circle cx="619" cy="30" r="100" fill="#FFEBF1"/><circle cx="751" cy="91" r="100" fill="#FFEBF1"/><circle cx="869" cy="64" r="100" fill="#FFEBF1"/><circle cx="799" cy="-9" r="140" fill="#FFEBF1"/><circle cx="956" cy="-50" r="90" fill="#FFEBF1"/><circle cx="1250" cy="51" r="80" fill="#FFEBF1"/><circle cx="308" cy="557" r="100" fill="#FFEBF1"/><circle cx="115" cy="534" r="80" fill="#FFEBF1"/><circle cx="400" cy="582" r="50" fill="#FFEBF1"/><circle cx="224" cy="491" r="65" fill="#FFEBF1"/><circle cx="203" cy="612" r="75" fill="#FFEBF1"/><circle cx="249" cy="-85" r="125" fill="#D0D6E3"/><circle cx="484" cy="-30" r="100" fill="#D0D6E3"/><circle cx="376" cy="8" r="100" fill="#D0D6E3"/><ellipse cx="196.5" cy="42.5" fill="#D0D6E3" rx="116.5" ry="108.5"/><circle cx="43" cy="-104" r="175" fill="#D0D6E3"/><path fill="#9ABBBE" d="M469.911 372.464c1.696 0 2.944.328 3.744.984.816.64 1.224 1.664 1.224 3.072 0 1.408-.408 2.448-1.224 3.12-.8.672-2.048 1.008-3.744 1.008h-9.408c-1.696 0-2.952-.336-3.768-1.008-.8-.672-1.2-1.712-1.2-3.12 0-1.408.4-2.432 1.2-3.072.816-.656 2.072-.984 3.768-.984h3.576v-2.88h-9.624v-1.848h17.64v-6.96h-15.96v-1.824h18.144v8.784h1.632v1.848h-9.624v2.88h3.624Zm-12.192 4.056c0 1.552.928 2.328 2.784 2.328h9.408c1.856 0 2.784-.776 2.784-2.328 0-.784-.24-1.352-.72-1.704-.464-.368-1.152-.552-2.064-.552h-9.408c-.912 0-1.608.184-2.088.552-.464.352-.696.92-.696 1.704Zm40.067-4.056v8.184h-18.384v-8.184h18.384Zm-.12-4.728h1.632v1.848h-21.456v-1.848h17.64v-6.96h-15.96v-1.824h18.144v8.784Zm-16.056 11.088h13.968v-4.512H481.61v4.512Zm32.075-4.608c0 2.128-.472 3.696-1.416 4.704-.928 1.024-2.408 1.536-4.44 1.536-3.92 0-5.88-2.072-5.88-6.216v-1.608c0-4.144 1.96-6.216 5.88-6.216 2.032 0 3.512.512 4.44 1.536.944 1.008 1.416 2.576 1.416 4.704v1.56Zm-9.528.024c0 1.568.312 2.672.936 3.312.64.64 1.552.96 2.736.96 1.168 0 2.064-.32 2.688-.96.64-.64.96-1.744.96-3.312v-1.608c0-1.568-.32-2.672-.96-3.312-.624-.64-1.52-.96-2.688-.96-1.184 0-2.096.32-2.736.96-.624.64-.936 1.744-.936 3.312v1.608Zm19.128-4.824h-3.648v11.232h-2.184V358.64h2.184v8.904h3.648v1.872Zm-21.696-5.04v-1.872h12.696v1.872h-12.696Zm2.4-3.792v-1.872h7.872v1.872h-7.872Zm28.691.24v8.376c0 2.064.512 3.896 1.536 5.496 1.04 1.6 2.44 2.952 4.2 4.056l-1.32 1.488c-.56-.368-1.12-.792-1.68-1.272a14.322 14.322 0 0 1-1.584-1.536c-.48-.544-.92-1.12-1.32-1.728a9.785 9.785 0 0 1-.96-1.92 9.427 9.427 0 0 1-.984 1.968 13.94 13.94 0 0 1-1.416 1.824 14.064 14.064 0 0 1-1.656 1.584c-.576.496-1.144.936-1.704 1.32l-1.32-1.488a13.928 13.928 0 0 0 2.424-1.896 12.31 12.31 0 0 0 1.896-2.304 11.44 11.44 0 0 0 1.224-2.664c.288-.944.432-1.92.432-2.928v-8.376h-4.992v-1.872h12.216v1.872h-4.992Zm9.84-2.184h2.184v22.008h-2.184V358.64Zm17.94.312v11.544h-11.736v-11.544h11.736Zm-9.552 9.744h7.368v-7.944h-7.368v7.944Zm.984 4.2v5.664h15v1.848h-17.208v-7.512h2.208Zm18.168-5.856h-3.648v7.92h-2.184v-16.32h2.184v6.552h3.648v1.848Zm16.206-6.216v1.344c0 .816.152 1.56.456 2.232.32.672.736 1.264 1.248 1.776a7.632 7.632 0 0 0 1.728 1.296c.64.352 1.288.624 1.944.816l-1.008 1.632a7.76 7.76 0 0 1-1.464-.528 8.91 8.91 0 0 1-1.488-.888 9.746 9.746 0 0 1-1.368-1.224 7.228 7.228 0 0 1-1.104-1.56 7.455 7.455 0 0 1-.984 1.584c-.4.48-.856.928-1.368 1.344-.496.4-1.032.768-1.608 1.104-.576.32-1.176.6-1.8.84l-1.032-1.536c.816-.336 1.568-.72 2.256-1.152a9.118 9.118 0 0 0 1.776-1.488 6.055 6.055 0 0 0 1.176-1.872c.288-.688.432-1.448.432-2.28v-1.44h-4.824v-1.872h11.832v1.872h-4.8Zm-6.12 13.656v-1.824h18.408v8.088h-2.184v-6.264h-16.224Zm16.2-15.84h2.184v12.816h-2.184V358.64Zm9.611 12.816v2.76h13.776v-2.76h2.184v9.192h-18.168v-9.192h2.208Zm3.696-10.632v1.104c0 .816.152 1.56.456 2.232.32.672.736 1.264 1.248 1.776a7.632 7.632 0 0 0 1.728 1.296c.64.352 1.288.624 1.944.816l-1.008 1.632a7.76 7.76 0 0 1-1.464-.528 8.91 8.91 0 0 1-1.488-.888 9.746 9.746 0 0 1-1.368-1.224 7.228 7.228 0 0 1-1.104-1.56 7.455 7.455 0 0 1-.984 1.584c-.4.48-.856.928-1.368 1.344-.496.4-1.032.768-1.608 1.104-.576.32-1.176.6-1.8.84l-1.032-1.536c.816-.336 1.568-.72 2.256-1.152a9.118 9.118 0 0 0 1.776-1.488 6.055 6.055 0 0 0 1.176-1.872c.288-.688.432-1.448.432-2.28v-1.2h-4.824v-1.872h11.832v1.872h-4.8Zm-3.696 18.024h13.776v-2.832h-13.776v2.832Zm15.96-20.208v11.616h-2.184v-5.184h-5.688V363.2h5.688v-4.56h2.184Zm28.111 16.704v-1.608h-16.2v-1.8h8.064v-1.944h-9.624v-1.848h21.456v1.848H644.1v1.944h8.112v5.208h-16.176v1.704h16.656v1.8h-18.864v-5.304h16.2Zm2.064-16.392v7.296h-18.144v-7.296h18.144Zm-15.936 5.472h13.728V360.8h-13.728v3.624Zm32.195 9.744c0 2.128-.472 3.704-1.416 4.728-.928 1.04-2.408 1.56-4.44 1.56-3.92 0-5.88-2.088-5.88-6.264v-9.216c0-4.176 1.96-6.264 5.88-6.264 2.032 0 3.512.52 4.44 1.56.944 1.024 1.416 2.6 1.416 4.728v9.168Zm-9.528.024c0 1.568.312 2.68.936 3.336.64.656 1.552.984 2.736.984 1.168 0 2.064-.328 2.688-.984.64-.656.96-1.768.96-3.336v-9.216c0-1.568-.32-2.68-.96-3.336-.624-.656-1.52-.984-2.688-.984-1.184 0-2.096.328-2.736.984-.624.656-.936 1.768-.936 3.336v9.216Zm16.92-15.552v22.008h-2.184v-11.232h-4.248v-1.872h4.248v-8.904h2.184Zm4.98 13.776v-13.464h2.208v5.112h13.728v-5.112h2.208v13.464h-18.144Zm2.208-6.48v4.656h13.728v-4.656h-13.728Zm5.76 12.384v-4.944h2.208v4.944h9.648v1.848h-21.504v-1.848h9.648Zm25.475-13.944c0 2.064-.256 3.92-.768 5.568-.496 1.648-1.192 3.12-2.088 4.416a15.22 15.22 0 0 1-3.24 3.408 21.58 21.58 0 0 1-4.128 2.568l-1.104-1.632a19.488 19.488 0 0 0 3.528-2.16 14.115 14.115 0 0 0 2.88-2.976 14.038 14.038 0 0 0 1.968-3.84c.48-1.44.72-3.04.72-4.8V360.8h-8.568v-1.848h10.8v5.424Zm6.168-5.736h2.184v22.008h-2.184V358.64Zm14.214 12.072v-11.76h2.208v4.128h13.728v-4.128h2.208v11.76h-18.144Zm2.208-5.76v3.936h13.728v-3.936h-13.728Zm-3.888 10.032v-1.848h21.456v1.848h-9.672v6.024h-2.208v-6.024h-9.576Zm43.212-1.368h-2.184v-12.84h-6.456v-1.824h8.64v14.664Zm-10.152 0h-2.184v-12.84h-6.288v-1.824h8.472v14.664Zm11.832 4.704v1.848h-21.504v-1.848h21.504Zm2.843 1.896v-11.712h9.264v-7.68h-9.312v-1.872h11.544v11.424h-9.288v8.016h10.728v1.824h-12.936Zm19.128-21.576v22.008h-2.184v-10.752h-4.008v-1.872h4.008v-9.384h2.184Zm9.707 9.048c-1.68 0-2.928-.392-3.744-1.176-.816-.784-1.224-1.848-1.224-3.192s.408-2.408 1.224-3.192c.816-.784 2.064-1.176 3.744-1.176h8.688c1.68 0 2.928.392 3.744 1.176.816.784 1.224 1.848 1.224 3.192s-.408 2.408-1.224 3.192c-.816.784-2.064 1.176-3.744 1.176h-8.688Zm-2.784-4.368c0 .816.232 1.448.696 1.896.48.432 1.176.648 2.088.648h8.688c.912 0 1.6-.216 2.064-.648.48-.448.72-1.08.72-1.896 0-.816-.24-1.44-.72-1.872-.464-.448-1.152-.672-2.064-.672h-8.688c-.912 0-1.608.224-2.088.672-.464.432-.696 1.056-.696 1.872Zm-3.624 8.424v-1.848h21.456v1.848h-9.624v4.2h-2.208v-4.2h-9.624Zm3.768 2.16v4.896h16.416v1.848H804.59v-6.744h2.208Zm-259.149 23.048v21.264h-11.736v-21.264h11.736Zm-9.528 19.44h7.32V398.8h-7.32v17.592Zm19.128-8.976h-3.648v11.232h-2.184V396.64h2.184v8.904h3.648v1.872Zm22.788-.36v1.848h-21.456v-1.848h21.456Zm-1.512 3.888v7.704h-18.384v-7.704h18.384Zm-16.176 5.88h13.968v-4.032h-13.968v4.032Zm2.64-11.856c-1.696 0-2.952-.328-3.768-.984-.8-.656-1.2-1.664-1.2-3.024s.4-2.368 1.2-3.024c.816-.656 2.072-.984 3.768-.984h8.688c1.696 0 2.944.328 3.744.984.816.656 1.224 1.664 1.224 3.024s-.408 2.368-1.224 3.024c-.8.656-2.048.984-3.744.984h-8.688Zm-2.784-4.008c0 .816.232 1.384.696 1.704.48.32 1.176.48 2.088.48h8.688c.912 0 1.6-.16 2.064-.48.48-.32.72-.888.72-1.704s-.24-1.384-.72-1.704c-.464-.32-1.152-.48-2.064-.48h-8.688c-.912 0-1.608.16-2.088.48-.464.32-.696.888-.696 1.704Zm41.219 5.184v1.848h-21.456v-1.848h21.456Zm-3.696 7.2v-1.608h-16.2v-1.8h18.384v5.208h-16.176v1.704h16.656v1.8h-18.864v-5.304h16.2Zm-11.352-9.096c-1.68 0-2.928-.272-3.744-.816-.816-.544-1.224-1.488-1.224-2.832 0-1.344.408-2.288 1.224-2.832.816-.544 2.064-.816 3.744-.816h8.688c1.68 0 2.928.272 3.744.816.816.544 1.224 1.488 1.224 2.832 0 1.344-.408 2.288-1.224 2.832-.816.544-2.064.816-3.744.816h-8.688Zm-2.784-3.648c0 .368.056.672.168.912.128.24.312.432.552.576.24.128.528.216.864.264.352.048.752.072 1.2.072h8.688c.448 0 .84-.024 1.176-.072.352-.048.648-.136.888-.264.24-.144.416-.336.528-.576.128-.24.192-.544.192-.912 0-.736-.24-1.224-.72-1.464-.464-.24-1.152-.36-2.064-.36h-8.688c-.912 0-1.608.12-2.088.36-.464.24-.696.728-.696 1.464Zm34.638-1.776v2.064c0 .816.152 1.56.456 2.232.32.672.736 1.264 1.248 1.776a7.632 7.632 0 0 0 1.728 1.296c.64.352 1.288.624 1.944.816l-1.008 1.632a7.76 7.76 0 0 1-1.464-.528 8.91 8.91 0 0 1-1.488-.888 9.746 9.746 0 0 1-1.368-1.224 7.228 7.228 0 0 1-1.104-1.56 7.455 7.455 0 0 1-.984 1.584c-.4.48-.856.928-1.368 1.344-.496.4-1.032.768-1.608 1.104-.576.32-1.176.6-1.8.84l-1.032-1.536c.816-.336 1.568-.72 2.256-1.152a9.118 9.118 0 0 0 1.776-1.488 6.055 6.055 0 0 0 1.176-1.872c.288-.688.432-1.448.432-2.28v-2.16h-4.824v-1.872h11.832v1.872h-4.8Zm-3.696 12.072v5.664h16.44v1.848h-18.648v-7.512h2.208Zm15.96-14.256v16.32h-2.184v-9.528h-5.688v-1.872h5.688v-4.92h2.184Zm14.172 16.008c0 .992-.08 1.848-.24 2.568-.16.736-.432 1.344-.816 1.824-.384.48-.896.832-1.536 1.056-.624.24-1.4.36-2.328.36-.944 0-1.728-.12-2.352-.36a3.328 3.328 0 0 1-1.512-1.056c-.384-.48-.656-1.08-.816-1.8-.16-.72-.24-1.576-.24-2.568V410.2c0-.976.08-1.824.24-2.544.16-.736.432-1.344.816-1.824.384-.48.888-.832 1.512-1.056.624-.24 1.408-.36 2.352-.36.928 0 1.704.12 2.328.36.64.24 1.152.6 1.536 1.08.384.48.656 1.088.816 1.824.16.72.24 1.568.24 2.544v2.424Zm7.584-16.008h2.136v22.008h-2.136v-11.232h-3.12v10.92h-2.112v-21.504h2.112v8.736h3.12v-8.928Zm-15.264 16.032c0 .72.04 1.328.12 1.824.096.496.248.888.456 1.176.224.304.512.52.864.648s.792.192 1.32.192.968-.064 1.32-.192c.352-.128.632-.344.84-.648.224-.288.376-.68.456-1.176.096-.496.144-1.104.144-1.824V410.2c0-.72-.048-1.328-.144-1.824-.08-.496-.232-.888-.456-1.176a1.693 1.693 0 0 0-.84-.648c-.352-.128-.792-.192-1.32-.192s-.968.064-1.32.192c-.352.128-.64.344-.864.648-.208.288-.36.68-.456 1.176-.08.496-.12 1.104-.12 1.824v2.472Zm-2.88-10.296v-1.872h11.28v1.872h-11.28Zm2.4-3.792v-1.872h6.456v1.872h-6.456Zm42.179 17.736v1.848h-21.504v-1.848h21.504Zm-19.824-19.368h18.264v1.848h-16.056v9.792h16.2v1.824h-18.408v-13.464Zm39.611-.312h2.184v11.616h-2.184V396.64Zm-13.776 12.816v2.76h13.776v-2.76h2.184v9.192h-18.168v-9.192h2.208Zm0 7.392h13.776v-2.832h-13.776v2.832Zm-3.168-9.432v-6.072h9.528v-2.568h-9.576v-1.824h11.784v6.264h-9.552v2.424h10.752v1.776h-12.936Zm40.331-10.776h2.184v22.008h-2.184V396.64Zm-16.944.312h2.208v19.44h10.752v1.824h-12.96v-21.264Zm23.148 0h12.456v1.848h-10.248v17.592h10.728v1.824h-12.936v-21.264Zm21.336 10.464h-3.648v11.232h-2.184V396.64h2.184v8.904h3.648v1.872Z"/></g><defs><clipPath id="a"><path fill="#fff" d="M0 0h1280v832H0z"/></clipPath></defs></svg>