<svg xmlns="http://www.w3.org/2000/svg" width="1280" height="832" fill="none"><g clip-path="url(#a)"><path fill="#C6E4E7" d="M0 0h1280v832H0z"/><path fill="#fff" d="M446.773 396.044h89.244c4.342 0 8.239.049 11.692.148 3.454 0 6.364-.247 8.732-.74 2.368-.592 4.144-1.628 5.328-3.108 1.283-1.579 1.924-3.947 1.924-7.104h2.96c0 3.749-.493 6.709-1.48 8.88-.888 2.171-2.466 3.848-4.736 5.032-2.269 1.085-5.377 1.776-9.324 2.072-3.946.296-8.929.444-14.948.444h-22.94v14.504h18.056c3.651 0 7.203.345 10.656 1.036 3.454.691 6.512 1.973 9.176 3.848 2.664 1.875 4.786 4.489 6.364 7.844 1.678 3.256 2.516 7.499 2.516 12.728s-.838 9.472-2.516 12.728c-1.578 3.355-3.7 5.969-6.364 7.844-2.664 1.973-5.722 3.305-9.176 3.996a54.177 54.177 0 0 1-10.656 1.036h-48.988c-3.65 0-7.202-.345-10.656-1.036-3.453-.691-6.512-2.023-9.176-3.996-2.664-1.875-4.834-4.489-6.512-7.844-1.578-3.256-2.368-7.499-2.368-12.728s.79-9.472 2.368-12.728c1.678-3.355 3.848-5.969 6.512-7.844 2.664-1.875 5.723-3.157 9.176-3.848a54.192 54.192 0 0 1 10.656-1.036h17.908v-14.504h-53.428v-5.624Zm19.832 45.584c0 2.861.296 5.525.888 7.992.691 2.467 1.727 4.588 3.108 6.364 1.48 1.776 3.355 3.157 5.624 4.144 2.368.987 5.279 1.48 8.732 1.48h43.66c3.454 0 6.315-.493 8.584-1.48 2.368-.987 4.243-2.368 5.624-4.144 1.48-1.776 2.516-3.897 3.108-6.364.691-2.467 1.036-5.131 1.036-7.992 0-2.861-.345-5.476-1.036-7.844-.592-2.467-1.628-4.588-3.108-6.364-1.381-1.776-3.256-3.157-5.624-4.144-2.269-.987-5.13-1.48-8.584-1.48h-43.66c-3.453 0-6.364.493-8.732 1.48-2.269.987-4.144 2.368-5.624 4.144-1.381 1.776-2.417 3.897-3.108 6.364-.592 2.368-.888 4.983-.888 7.844Zm92.648-102.12c0 5.624-.74 10.952-2.22 15.984-1.48 5.032-3.404 9.669-5.772 13.912-2.368 4.243-4.982 7.992-7.844 11.248-2.861 3.256-5.673 5.871-8.436 7.844l-1.776-2.22c3.947-4.44 7.104-10.705 9.472-18.796 2.368-8.189 3.552-17.464 3.552-27.824v-4.292h-61.272c-5.13 0-9.472.493-13.024 1.48-3.552.888-6.413 2.171-8.584 3.848a14.459 14.459 0 0 0-4.736 6.364c-.888 2.467-1.332 5.229-1.332 8.288h-3.108c0-4.243.494-7.943 1.48-11.1.987-3.256 2.664-5.92 5.032-7.992 2.368-2.171 5.476-3.799 9.324-4.884 3.947-1.085 8.88-1.628 14.8-1.628h74.444v9.768Zm20.778 116.328h89.244c5.328 0 9.719-.493 13.172-1.48 3.552-.888 6.413-2.171 8.584-3.848 2.171-1.677 3.7-3.749 4.588-6.216.888-2.467 1.332-5.279 1.332-8.436h2.96c0 3.749-.444 7.153-1.332 10.212-.789 3.157-2.319 5.871-4.588 8.14-2.171 2.269-5.229 4.045-9.176 5.328-3.947 1.283-9.077 1.924-15.392 1.924h-89.392v-5.624Zm112.48-116.18c0 19.24-2.269 35.619-6.808 49.136-4.44 13.419-11.297 24.568-20.572 33.448l-1.332-1.48c2.565-4.736 4.785-10.163 6.66-16.28 1.973-6.216 3.601-12.827 4.884-19.832 1.381-7.005 2.417-14.307 3.108-21.904a258.048 258.048 0 0 0 1.036-23.088v-4.292h-61.272c-5.131 0-9.472.493-13.024 1.48-3.552.888-6.413 2.171-8.584 3.848a14.451 14.451 0 0 0-4.736 6.364c-.888 2.467-1.332 5.229-1.332 8.288h-3.108c0-4.243.493-7.943 1.48-11.1.987-3.256 2.664-5.92 5.032-7.992 2.368-2.171 5.476-3.799 9.324-4.884 3.947-1.085 8.88-1.628 14.8-1.628h74.444v9.916Zm22.702-17.76c0 2.171.592 3.799 1.776 4.884 1.184 1.085 2.664 1.875 4.44 2.368 1.875.395 3.947.592 6.216.592h43.512v131.72h-57.424V332.996c1.283 1.677 2.911 2.96 4.884 3.848 1.973.789 4.44 1.135 7.4 1.036v117.956h32.856V335.364h-28.564c-2.171 0-4.292-.099-6.364-.296-1.973-.197-3.749-.74-5.328-1.628-1.579-.888-2.911-2.22-3.996-3.996-.987-1.875-1.529-4.391-1.628-7.548h2.22Zm71.188 7.844h13.024v63.048h15.688V329.74h13.024v131.72h-13.024v-63.048h-15.688v63.048h-13.024V329.74ZM334.068 739c-18 11.2-19.833 34-18.5 44-30-15.5-72.5 6-70.5 49 1.6 34.4 30.333 46.334 44.5 48 85.667.834 259.7 2 270.5 0 10.8-2 18.5-11.166 21-15.5 4-9.5 8.2-31.9-7-45.5-15.2-13.6-31.333-10.333-37.5-7 1.833-6.333.8-22-18-34s-34.167-3-39.5 3c-1.167-1-4.7-3-9.5-3s-9 1-10.5 1.5c-2.5-3.5-10.5-11.5-20.5-16.5-8-4-20-5-25-5-11-17.5-9.5-14.5-18.5-22-7.2-6-22.667-7.833-29-8-8 0-14-.2-32 11ZM-21.932 444c-18 11.2-19.833 34-18.5 44-30-15.5-72.5 6-70.5 49 1.6 34.4 30.333 46.334 44.5 48 85.667.834 259.7 2 270.5 0 10.8-2 18.5-11.166 21-15.5 4-9.5 8.2-31.9-7-45.5-15.2-13.6-31.333-10.333-37.5-7 1.833-6.333.8-22-18-34s-34.167-3-39.5 3c-1.167-1-4.7-3-9.5-3s-9 1-10.5 1.5c-2.5-3.5-10.5-11.5-20.5-16.5-8-4-20-5-25-5-11-17.5-9.5-14.5-18.5-22-7.2-6-22.666-7.833-29-8-8 0-14-.2-32 11ZM1279.62 523.076c23.52 13.314 25.92 40.417 24.17 52.304 39.2-18.425 94.73 7.133 92.12 58.248-2.09 40.893-39.63 55.078-58.14 57.059-111.94.991-339.334 2.378-353.445 0-14.112-2.377-24.173-13.274-27.439-18.425-5.227-11.293-10.714-37.921 9.146-54.087 19.861-16.167 40.938-12.284 48.998-8.321-2.39-7.529-1.04-26.152 23.52-40.417s44.64-3.566 51.61 3.566c1.53-1.189 6.14-3.566 12.41-3.566 6.28 0 11.76 1.189 13.72 1.783 3.27-4.161 13.72-13.67 26.79-19.614 10.45-4.755 26.13-5.944 32.67-5.944 14.37-20.803 12.41-17.236 24.17-26.152 9.41-7.132 29.61-9.312 37.89-9.51 10.45 0 18.29-.237 41.81 13.076ZM407.189 231.264h2.64v35.904h21.032v2.376h-23.672v-38.28Zm33.836-.572v39.644h-2.596v-20.768h-12.892v-2.376h12.892v-16.5h2.596Zm40.544 0h2.596v39.644h-2.596v-39.644Zm-2.024 37.224c-2.258.264-4.693.484-7.304.66-2.61.205-5.265.367-7.964.484-2.669.147-5.309.249-7.92.308-2.61.088-5.045.147-7.304.176l-.352-2.288c2.318-.029 4.782-.088 7.392-.176 2.611-.059 5.236-.147 7.876-.264 2.64-.117 5.251-.264 7.832-.44 2.611-.176 5.075-.396 7.392-.66l.352 2.2Zm-5.676-21.296c0 3.725-.938 6.468-2.816 8.228-1.877 1.731-4.634 2.596-8.272 2.596-3.666 0-6.438-.865-8.316-2.596-1.877-1.731-2.816-4.459-2.816-8.184v-5.06c0-3.725.939-6.453 2.816-8.184 1.878-1.731 4.65-2.596 8.316-2.596 3.638 0 6.395.88 8.272 2.64 1.878 1.731 2.816 4.459 2.816 8.184v4.972Zm-19.58 0c0 1.76.235 3.197.704 4.312.47 1.115 1.1 1.995 1.892 2.64a6.894 6.894 0 0 0 2.684 1.276c1.027.205 2.098.308 3.212.308 1.086 0 2.127-.103 3.124-.308a6.881 6.881 0 0 0 2.728-1.276c.792-.645 1.423-1.525 1.892-2.64.47-1.115.704-2.552.704-4.312v-4.928c0-1.76-.234-3.197-.704-4.312-.469-1.115-1.1-1.98-1.892-2.596a6.163 6.163 0 0 0-2.728-1.276 13.573 13.573 0 0 0-3.124-.352 14.36 14.36 0 0 0-3.212.352 6.156 6.156 0 0 0-2.684 1.276c-.792.616-1.422 1.481-1.892 2.596-.469 1.115-.704 2.552-.704 4.312v4.928Zm84.536-15.928h2.596v39.776h-2.596v-20.9h-6.908v20.196h-2.596v-38.72h2.596v16.192h6.908v-16.544Zm-29.392 2.948v33.528h16.544v2.376h-19.184v-38.28h17.908v2.376h-15.268Zm44.329 20.548v5.588h24.2v-5.588h2.596v16.148h-29.436v-16.148h2.64Zm0 13.904h24.2v-6.072h-24.2v6.072Zm-1.76-34.452v13.728h20.108v2.376h-22.748v-18.48h21.428v2.376h-18.788Zm35.42 7.568h-6.864v10.076h-2.596v-20.592h2.596v8.184h6.864v2.332Zm36.761-10.516h2.596v39.644h-2.596v-39.644Zm-10.78 27.808c0 3.843-.792 6.717-2.376 8.624-1.584 1.907-4.195 2.86-7.832 2.86-3.638 0-6.263-.953-7.876-2.86-1.584-1.907-2.376-4.767-2.376-8.58v-16.28c0-3.813.792-6.673 2.376-8.58 1.613-1.907 4.238-2.86 7.876-2.86 3.637 0 6.248.968 7.832 2.904 1.584 1.907 2.376 4.767 2.376 8.58V258.5Zm-17.82.66c0 1.555.19 2.875.572 3.96.381 1.085.909 1.965 1.584 2.64a6.205 6.205 0 0 0 2.42 1.452c.938.323 1.95.484 3.036.484 1.085 0 2.082-.161 2.992-.484a5.822 5.822 0 0 0 2.42-1.452c.674-.675 1.202-1.555 1.584-2.64.381-1.085.572-2.405.572-3.96v-17.468c0-1.555-.191-2.875-.572-3.96-.382-1.085-.91-1.965-1.584-2.64a5.822 5.822 0 0 0-2.42-1.452c-.91-.323-1.907-.484-2.992-.484a9.264 9.264 0 0 0-3.036.484 6.205 6.205 0 0 0-2.42 1.452c-.675.675-1.203 1.555-1.584 2.64-.382 1.085-.572 2.405-.572 3.96v17.468Z"/></g><defs><clipPath id="a"><path fill="#fff" d="M0 0h1280v832H0z"/></clipPath></defs></svg>