<svg xmlns="http://www.w3.org/2000/svg" width="1280" height="832" fill="none"><g clip-path="url(#a)"><path fill="#fff" fill-opacity=".76" d="M0 0h1280v832H0z"/><path fill="#C0D9DC" d="M455.645 469.632c0-7.203 3.7-12.925 11.1-17.168 7.498-4.341 18.204-6.611 32.116-6.808V425.38h-56.388c-1.283 0-1.924-.592-1.924-1.776 0-1.283.641-1.924 1.924-1.924h116.032c1.282 0 1.924.641 1.924 1.924 0 1.184-.642 1.776-1.924 1.776h-55.648v20.276c13.813.197 24.42 2.467 31.82 6.808 7.498 4.341 11.248 10.064 11.248 17.168 0 7.4-3.898 13.221-11.692 17.464-7.795 4.341-18.944 6.512-33.448 6.512-14.504 0-25.654-2.171-33.448-6.512-7.795-4.243-11.692-10.064-11.692-17.464Zm86.284 0c0-3.355-1.036-6.265-3.108-8.732-2.072-2.565-4.983-4.687-8.732-6.364-3.651-1.776-7.992-3.059-13.024-3.848-4.934-.888-10.36-1.332-16.28-1.332-5.92 0-11.396.444-16.428 1.332-4.934.789-9.275 2.072-13.024 3.848-3.651 1.677-6.512 3.799-8.584 6.364-2.072 2.467-3.108 5.377-3.108 8.732 0 3.355 1.036 6.265 3.108 8.732 2.072 2.565 4.933 4.687 8.584 6.364 3.749 1.776 8.09 3.059 13.024 3.848 5.032.888 10.508 1.332 16.428 1.332 5.92 0 11.346-.444 16.28-1.332 5.032-.789 9.373-2.072 13.024-3.848 3.749-1.677 6.66-3.799 8.732-6.364 2.072-2.467 3.108-5.377 3.108-8.732Zm-83.176-100.196c-1.283 0-1.924-.592-1.924-1.776 0-1.283.641-1.924 1.924-1.924h78.144c1.973 0 3.502.543 4.588 1.628 1.184.987 1.726 2.467 1.628 4.44a164.51 164.51 0 0 1-.592 9.176 117.074 117.074 0 0 1-1.036 9.916 119.02 119.02 0 0 1-1.628 10.064 193.866 193.866 0 0 1-1.924 9.324c-.099.296-.346.74-.74 1.332-.296.493-.888.641-1.776.444-.79-.197-1.234-.543-1.332-1.036-.099-.592-.099-1.036 0-1.332 1.381-5.525 2.516-11.396 3.404-17.612a169.013 169.013 0 0 0 1.628-18.352c.098-1.677-.148-2.812-.74-3.404-.592-.592-1.48-.888-2.664-.888h-76.96Zm122.903 104.932c-1.282 0-1.924-.592-1.924-1.776 0-1.283.642-1.924 1.924-1.924h116.032c1.283 0 1.924.641 1.924 1.924 0 1.184-.641 1.776-1.924 1.776H581.656ZM678.3 380.24c.099-1.677-.148-2.812-.74-3.404-.592-.592-1.48-.888-2.664-.888h-76.96c-1.282 0-1.924-.592-1.924-1.776 0-1.283.642-1.924 1.924-1.924h78.144c1.974 0 3.503.543 4.588 1.628 1.184.987 1.727 2.467 1.628 4.44 0 5.525-.197 11.593-.592 18.204a334.756 334.756 0 0 1-1.48 19.832 333.144 333.144 0 0 1-2.516 18.796c-.888 6.019-1.924 11.149-3.108 15.392-.098.395-.296.937-.592 1.628-.296.592-.986.789-2.072.592-.986-.197-1.48-.641-1.48-1.332 0-.691.05-1.233.148-1.628 1.184-4.144 2.22-9.127 3.108-14.948a246.658 246.658 0 0 0 2.368-18.204 425.583 425.583 0 0 0 1.628-19.092c.395-6.413.592-12.185.592-17.316Zm95.376 67.636c0 4.341-.987 7.449-2.96 9.324-1.875 1.776-4.884 2.664-9.028 2.664h-24.272c-4.144 0-7.203-.888-9.176-2.664-1.875-1.875-2.812-4.983-2.812-9.324V386.9c0-4.341.937-7.4 2.812-9.176 1.973-1.875 5.032-2.812 9.176-2.812h24.272c4.144 0 7.153.937 9.028 2.812 1.973 1.776 2.96 4.835 2.96 9.176v60.976Zm-3.996-60.828c0-2.861-.592-4.983-1.776-6.364-1.184-1.381-3.306-2.072-6.364-2.072h-23.976c-3.059 0-5.18.691-6.364 2.072-1.184 1.381-1.776 3.503-1.776 6.364v60.68c0 2.861.592 4.983 1.776 6.364 1.184 1.381 3.305 2.072 6.364 2.072h23.976c3.058 0 5.18-.691 6.364-2.072 1.184-1.381 1.776-3.503 1.776-6.364v-60.68ZM829.176 490.5c0 1.48-.642 2.22-1.924 2.22-1.382 0-2.072-.74-2.072-2.22v-72.076h-23.532v65.268c0 1.48-.642 2.22-1.924 2.22-1.382 0-2.072-.74-2.072-2.22V366.18c0-1.48.69-2.22 2.072-2.22 1.282 0 1.924.74 1.924 2.22v48.544h23.532V363.22c0-1.48.69-2.22 2.072-2.22 1.282 0 1.924.74 1.924 2.22V490.5Z"/><path fill="#C6E4E7" d="M529.189 251.264h2.64v35.904h21.032v2.376h-23.672v-38.28Zm33.836-.572v39.644h-2.596v-20.768h-12.892v-2.376h12.892v-16.5h2.596Zm40.544 0h2.596v39.644h-2.596v-39.644Zm-2.024 37.224c-2.258.264-4.693.484-7.304.66-2.61.205-5.265.367-7.964.484-2.669.147-5.309.249-7.92.308-2.61.088-5.045.147-7.304.176l-.352-2.288c2.318-.029 4.782-.088 7.392-.176 2.611-.059 5.236-.147 7.876-.264 2.64-.117 5.251-.264 7.832-.44 2.611-.176 5.075-.396 7.392-.66l.352 2.2Zm-5.676-21.296c0 3.725-.938 6.468-2.816 8.228-1.877 1.731-4.634 2.596-8.272 2.596-3.666 0-6.438-.865-8.316-2.596-1.877-1.731-2.816-4.459-2.816-8.184v-5.06c0-3.725.939-6.453 2.816-8.184 1.878-1.731 4.65-2.596 8.316-2.596 3.638 0 6.395.88 8.272 2.64 1.878 1.731 2.816 4.459 2.816 8.184v4.972Zm-19.58 0c0 1.76.235 3.197.704 4.312.47 1.115 1.1 1.995 1.892 2.64a6.894 6.894 0 0 0 2.684 1.276c1.027.205 2.098.308 3.212.308 1.086 0 2.127-.103 3.124-.308a6.881 6.881 0 0 0 2.728-1.276c.792-.645 1.423-1.525 1.892-2.64.47-1.115.704-2.552.704-4.312v-4.928c0-1.76-.234-3.197-.704-4.312-.469-1.115-1.1-1.98-1.892-2.596a6.163 6.163 0 0 0-2.728-1.276 13.573 13.573 0 0 0-3.124-.352 14.36 14.36 0 0 0-3.212.352 6.156 6.156 0 0 0-2.684 1.276c-.792.616-1.422 1.481-1.892 2.596-.469 1.115-.704 2.552-.704 4.312v4.928Zm84.536-15.928h2.596v39.776h-2.596v-20.9h-6.908v20.196h-2.596v-38.72h2.596v16.192h6.908v-16.544Zm-29.392 2.948v33.528h16.544v2.376h-19.184v-38.28h17.908v2.376h-15.268Zm44.329 20.548v5.588h24.2v-5.588h2.596v16.148h-29.436v-16.148h2.64Zm0 13.904h24.2v-6.072h-24.2v6.072Zm-1.76-34.452v13.728h20.108v2.376h-22.748v-18.48h21.428v2.376h-18.788Zm35.42 7.568h-6.864v10.076h-2.596v-20.592h2.596v8.184h6.864v2.332Zm36.761-10.516h2.596v39.644h-2.596v-39.644Zm-10.78 27.808c0 3.843-.792 6.717-2.376 8.624-1.584 1.907-4.195 2.86-7.832 2.86-3.638 0-6.263-.953-7.876-2.86-1.584-1.907-2.376-4.767-2.376-8.58v-16.28c0-3.813.792-6.673 2.376-8.58 1.613-1.907 4.238-2.86 7.876-2.86 3.637 0 6.248.968 7.832 2.904 1.584 1.907 2.376 4.767 2.376 8.58V278.5Zm-17.82.66c0 1.555.19 2.875.572 3.96.381 1.085.909 1.965 1.584 2.64a6.205 6.205 0 0 0 2.42 1.452c.938.323 1.95.484 3.036.484 1.085 0 2.082-.161 2.992-.484a5.822 5.822 0 0 0 2.42-1.452c.674-.675 1.202-1.555 1.584-2.64.381-1.085.572-2.405.572-3.96v-17.468c0-1.555-.191-2.875-.572-3.96-.382-1.085-.91-1.965-1.584-2.64a5.822 5.822 0 0 0-2.42-1.452c-.91-.323-1.907-.484-2.992-.484a9.264 9.264 0 0 0-3.036.484 6.205 6.205 0 0 0-2.42 1.452c-.675.675-1.203 1.555-1.584 2.64-.382 1.085-.572 2.405-.572 3.96v17.468Z"/><circle cx="1042" cy="544" r="48.5" stroke="#C6E4E7" stroke-width="3"/><circle cx="1107" cy="407" r="33.5" stroke="#C6E4E7" stroke-width="3"/><circle cx="585" cy="23" r="125" fill="#D0D6E3"/><circle cx="850" cy="805" r="200" fill="#FFEBF1"/><circle cx="1021" cy="792" r="100" fill="#FFEBF1"/><circle cx="234" cy="23" r="100" fill="#C6E4E7" fill-opacity=".5"/><circle cx="110" cy="203" r="50" fill="#C6E4E7" fill-opacity=".5"/><circle cx="756" r="100" fill="#D0D6E3"/><circle cx="250" cy="728" r="125" fill="#D0D6E3"/><circle cx="485" cy="783" r="100" fill="#D0D6E3"/><circle cx="397" cy="685" r="100" fill="#D0D6E3"/><circle cx="350" cy="823" r="100" fill="#D0D6E3"/><circle cx="161" cy="854" r="100" fill="#D0D6E3"/><circle cx="620" cy="831" r="100" fill="#FFEBF1"/><circle cx="60" cy="694" r="150" fill="#D0D6E3"/></g><defs><clipPath id="a"><path fill="#fff" d="M0 0h1280v832H0z"/></clipPath></defs></svg>